<?xml version="1.0" encoding="UTF-8"?>
<svg xmlns="http://www.w3.org/2000/svg" xmlns:xlink="http://www.w3.org/1999/xlink" height="112" viewbox="0 0 200 118" width="190">
<!-- Rays -->
<g opacity="0.8" stroke="#FFD600" stroke-linecap="round" stroke-width="2.5">
<line x1="100" x2="100" y1="4" y2="14"></line>
<line x1="128" x2="122" y1="12" y2="20"></line>
<line x1="148" x2="140" y1="30" y2="36"></line>
<line x1="158" x2="148" y1="50" y2="50"></line>
<line x1="148" x2="140" y1="70" y2="64"></line>
<line x1="128" x2="122" y1="88" y2="80"></line>
<line x1="100" x2="100" y1="96" y2="86"></line>
<line x1="72" x2="78" y1="88" y2="80"></line>
<line x1="52" x2="60" y1="70" y2="64"></line>
<line x1="42" x2="52" y1="50" y2="50"></line>
<line x1="52" x2="60" y1="30" y2="36"></line>
<line x1="72" x2="78" y1="12" y2="20"></line>
</g>
<!-- 0 -->
<ellipse cx="100" cy="50" fill="none" rx="28" ry="32" stroke="#00836F" stroke-width="5"></ellipse>
<text dominant-baseline="middle" fill="#00836F" font-family="'Helvetica Neue',Arial,sans-serif" font-size="11" font-weight="900" text-anchor="middle" x="100" y="55">AI</text>
<text fill="#00836F" font-family="'Helvetica Neue',Arial,sans-serif" font-size="9.5" font-weight="700" letter-spacing="2" text-anchor="middle" x="100" y="108">AI ZERO</text>
<text fill="#aaa" font-family="'Helvetica Neue',Arial,sans-serif" font-size="7.5" text-anchor="middle" x="100" y="116">ホームページリメイクスタジオ</text>
</svg>