<svg xmlns="http://www.w3.org/2000/svg" viewBox="0 0 480 200" width="480" height="200">
  <defs>
    <linearGradient id="blueGrad" x1="0%" y1="0%" x2="100%" y2="100%">
      <stop offset="0%" style="stop-color:#1A3580;stop-opacity:1"/>
      <stop offset="100%" style="stop-color:#2B5CE6;stop-opacity:1"/>
    </linearGradient>
  </defs>
  <rect width="480" height="200" fill="white"/>
  <g transform="translate(88,100)">
    <!-- Crown shape -->
    <path d="M -44 28 L -44 -8 L -22 -32 L 0 -8 L 22 -32 L 44 -8 L 44 28 Z" fill="url(#blueGrad)"/>
    <!-- Crown gems -->
    <circle cx="-22" cy="-32" r="7" fill="#F59E0B"/>
    <circle cx="0" cy="-8" r="7" fill="#60A5FA"/>
    <circle cx="22" cy="-32" r="7" fill="#F59E0B"/>
    <!-- Crown base detail -->
    <rect x="-44" y="24" width="88" height="8" rx="4" fill="#1A3580"/>
    <!-- Inner highlight -->
    <path d="M -36 20 L -36 -4 L -18 -24 L 0 -4 L 18 -24 L 36 -4 L 36 20 Z" fill="none" stroke="rgba(255,255,255,0.25)" stroke-width="1.5"/>
  </g>
  <text x="160" y="74" font-family="'Helvetica Neue',Arial,'Noto Sans JP',sans-serif" font-size="10.5" fill="#6B7280" letter-spacing="2">Site Meister</text>
  <text x="160" y="118" font-family="'Helvetica Neue',Arial,sans-serif" font-size="36" font-weight="800" fill="#1A3580">サイトマイスター</text>
  <rect x="160" y="125" width="200" height="3" fill="url(#blueGrad)" rx="1.5"/>
  <text x="160" y="150" font-family="'Helvetica Neue',Arial,'Noto Sans JP',sans-serif" font-size="10" fill="#9CA3AF">AIがサイト制作の名人として高品質なHPを提供</text>
</svg>
