<svg xmlns="http://www.w3.org/2000/svg" viewBox="0 0 480 200" width="480" height="200">
  <rect width="480" height="200" fill="white"/>
  <g transform="translate(88,100)">
    <!-- 5-point star -->
    <polygon points="0,-50 11,-18 44,-18 19,2 29,34 0,16 -29,34 -19,2 -44,-18 -11,-18" fill="#1A3580"/>
    <!-- Inner star highlight -->
    <polygon points="0,-38 8,-14 32,-14 14,2 22,26 0,12 -22,26 -14,2 -32,-14 -8,-14" fill="#2B5CE6" opacity="0.5"/>
    <!-- Center circle -->
    <circle cx="0" cy="0" r="10" fill="#F59E0B"/>
    <circle cx="0" cy="0" r="5" fill="white"/>
  </g>
  <text x="160" y="74" font-family="'Helvetica Neue',Arial,sans-serif" font-size="11" fill="#6B7280" letter-spacing="3">SITE MEISTER</text>
  <text x="160" y="118" font-family="'Helvetica Neue',Arial,sans-serif" font-size="34" font-weight="800" fill="#1A3580">サイトマイスター</text>
  <rect x="160" y="124" width="180" height="2" fill="#E5E7EB" rx="1"/>
  <rect x="160" y="124" width="50" height="2" fill="#F59E0B" rx="1"/>
  <text x="160" y="150" font-family="'Helvetica Neue',Arial,'Noto Sans JP',sans-serif" font-size="10" fill="#9CA3AF">5つ星クオリティのAIホームページ制作</text>
</svg>
