<svg xmlns="http://www.w3.org/2000/svg" viewBox="0 0 480 200" width="480" height="200">
  <defs>
    <linearGradient id="ribbonG" x1="0%" y1="0%" x2="0%" y2="100%">
      <stop offset="0%" style="stop-color:#2B5CE6"/>
      <stop offset="100%" style="stop-color:#1A3580"/>
    </linearGradient>
  </defs>
  <rect width="480" height="200" fill="white"/>
  <g transform="translate(88,98)">
    <!-- Award circle -->
    <circle cx="0" cy="-14" r="38" fill="url(#ribbonG)"/>
    <circle cx="0" cy="-14" r="30" fill="none" stroke="rgba(255,255,255,0.2)" stroke-width="2"/>
    <!-- Star in circle -->
    <polygon points="0,-42 4,-30 16,-30 8,-22 11,-10 0,-18 -11,-10 -8,-22 -16,-30 -4,-30" fill="#F59E0B" transform="translate(0,14)"/>
    <!-- Ribbon tails -->
    <path d="M -16 22 L -26 46 L -6 38 L 0 50 L 6 38 L 26 46 L 16 22 Z" fill="url(#ribbonG)"/>
    <!-- Ribbon highlight -->
    <path d="M -10 22 L -18 40 L -6 34" fill="rgba(255,255,255,0.15)"/>
  </g>
  <text x="160" y="74" font-family="'Helvetica Neue',Arial,sans-serif" font-size="11" fill="#6B7280" letter-spacing="3">SITE MEISTER</text>
  <text x="160" y="118" font-family="'Helvetica Neue',Arial,sans-serif" font-size="34" font-weight="800" fill="#1A3580">サイトマイスター</text>
  <text x="160" y="148" font-family="'Helvetica Neue',Arial,'Noto Sans JP',sans-serif" font-size="10" fill="#9CA3AF">受賞品質のAIホームページ制作</text>
</svg>
