<svg xmlns="http://www.w3.org/2000/svg" viewBox="0 0 480 200" width="480" height="200">
  <rect width="480" height="200" fill="white"/>
  <g transform="translate(88,100)">
    <!-- Gear shape (12 teeth) -->
    <path d="M 0,-50 L 6,-46 L 10,-52 L 16,-48 L 14,-42 L 20,-36 L 26,-40 L 30,-34 L 24,-30 L 26,-22 L 32,-20 L 32,-14 L 26,-12 L 26,-4 L 32,0 L 30,6 L 24,4 L 20,10 L 26,16 L 22,22 L 16,18 L 10,24 L 12,30 L 6,32 L 2,26 L -6,26 L -6,32 L -12,30 L -10,24 L -16,18 L -22,22 L -26,16 L -20,10 L -24,4 L -30,6 L -32,0 L -26,-4 L -26,-12 L -32,-14 L -32,-20 L -26,-22 L -24,-30 L -30,-34 L -26,-40 L -20,-36 L -14,-42 L -16,-48 L -10,-52 L -6,-46 Z" fill="#1A3580"/>
    <circle cx="0" cy="0" r="22" fill="white"/>
    <circle cx="0" cy="0" r="14" fill="#2B5CE6"/>
    <circle cx="0" cy="0" r="6" fill="white"/>
    <!-- AI text in center -->
    <text x="0" y="4" font-family="'Helvetica Neue',Arial,sans-serif" font-size="8" font-weight="900" fill="#1A3580" text-anchor="middle">AI</text>
  </g>
  <text x="160" y="74" font-family="'Helvetica Neue',Arial,sans-serif" font-size="11" fill="#6B7280" letter-spacing="3">SITE MEISTER</text>
  <text x="160" y="118" font-family="'Helvetica Neue',Arial,sans-serif" font-size="34" font-weight="800" fill="#1A3580">サイトマイスター</text>
  <text x="160" y="148" font-family="'Helvetica Neue',Arial,'Noto Sans JP',sans-serif" font-size="10" fill="#9CA3AF">AIエンジンが精密に動くホームページ制作</text>
</svg>
