<svg xmlns="http://www.w3.org/2000/svg" viewBox="0 0 480 200" width="480" height="200">
  <rect width="480" height="200" fill="white"/>
  <g transform="translate(88,100)">
    <!-- Infinity symbol -->
    <path d="M -4 0 Q -4 -30 -26 -30 Q -52 -30 -52 0 Q -52 30 -26 30 Q -4 30 -4 0 Q -4 -30 20 -30 Q 44 -30 44 0 Q 44 30 20 30 Q -4 30 -4 0 Z" fill="none" stroke="#1A3580" stroke-width="6" stroke-linecap="round"/>
    <!-- Accent overlay on right loop -->
    <path d="M -4 0 Q -4 -30 20 -30 Q 44 -30 44 0 Q 44 30 20 30 Q -4 30 -4 0 Z" fill="none" stroke="#2B5CE6" stroke-width="3" stroke-linecap="round"/>
    <!-- Center crossing dot -->
    <circle cx="-4" cy="0" r="6" fill="white" stroke="#1A3580" stroke-width="2"/>
    <circle cx="-4" cy="0" r="3" fill="#F59E0B"/>
  </g>
  <text x="160" y="72" font-family="'Helvetica Neue',Arial,sans-serif" font-size="11" fill="#6B7280" letter-spacing="3">SITE MEISTER</text>
  <text x="160" y="118" font-family="'Helvetica Neue',Arial,sans-serif" font-size="34" font-weight="800" fill="#1A3580">サイトマイスター</text>
  <text x="160" y="148" font-family="'Helvetica Neue',Arial,'Noto Sans JP',sans-serif" font-size="10" fill="#9CA3AF">進化し続けるAIホームページサービス</text>
</svg>
