<svg xmlns="http://www.w3.org/2000/svg" viewBox="0 0 480 200" width="480" height="200">
  <rect width="480" height="200" fill="white"/>
<g transform="translate(90,100)">
    <circle cx="0" cy="0" r="36" fill="none" stroke="#0D4F38" stroke-width="4"/>
    <path d="M -36 0 L -52 0 L -52 -24 L -28 -24" fill="none" stroke="#0D4F38" stroke-width="2" stroke-linecap="round"/>
    <path d="M 36 0 L 52 0 L 52 24 L 28 24" fill="none" stroke="#00C9A7" stroke-width="2" stroke-linecap="round"/>
    <path d="M 0 -36 L 0 -52 L 24 -52" fill="none" stroke="#0D4F38" stroke-width="2" stroke-linecap="round"/>
    <rect x="-32" y="-28" width="8" height="8" rx="1" fill="#0D4F38"/>
    <rect x="24" y="20" width="8" height="8" rx="1" fill="#00C9A7"/>
    <rect x="20" y="-56" width="8" height="8" rx="1" fill="#0D4F38"/>
    <circle cx="0" cy="0" r="10" fill="#0D4F38"/>
    <text x="0" y="4" font-family="'Helvetica Neue',Arial,sans-serif" font-size="10" font-weight="900" fill="white" text-anchor="middle">0</text>
  </g>
  <text x="158" y="72" font-family="'Helvetica Neue',Arial,'Noto Sans JP',sans-serif" font-size="10.5" fill="#6B7280" letter-spacing="2">ホームページリメイクスタジオ</text>
  <text x="158" y="118" font-family="'Helvetica Neue',Arial,sans-serif" font-size="26" font-weight="700" fill="#0D4F38">AI ZERO</text>
  <rect x="158" y="124" width="130" height="2.5" fill="#00C9A7" rx="1.25"/>
  <text x="158" y="149" font-family="'Helvetica Neue',Arial,'Noto Sans JP',sans-serif" font-size="10" fill="#9CA3AF">回路のように精密なAI HP設計</text>
</svg>