<svg xmlns="http://www.w3.org/2000/svg" viewBox="0 0 480 200" width="480" height="200">
  <rect width="480" height="200" fill="white"/>
<g transform="translate(90,100)">
    <line x1="-30" y1="-30" x2="0" y2="-44" stroke="#0D4F38" stroke-width="1.5" opacity="0.5"/>
    <line x1="0" y1="-44" x2="36" y2="-20" stroke="#0D4F38" stroke-width="1.5" opacity="0.5"/>
    <line x1="36" y1="-20" x2="24" y2="20" stroke="#0D4F38" stroke-width="1.5" opacity="0.5"/>
    <line x1="24" y1="20" x2="-20" y2="36" stroke="#00C9A7" stroke-width="1.5" opacity="0.6"/>
    <line x1="-20" y1="36" x2="-44" y2="4" stroke="#00C9A7" stroke-width="1.5" opacity="0.6"/>
    <line x1="-44" y1="4" x2="-30" y2="-30" stroke="#0D4F38" stroke-width="1.5" opacity="0.5"/>
    <line x1="0" y1="-44" x2="-20" y2="36" stroke="#0D4F38" stroke-width="1" opacity="0.3"/>
    <circle cx="-30" cy="-30" r="5" fill="#0D4F38"/>
    <circle cx="0" cy="-44" r="7" fill="#0D4F38"/>
    <circle cx="36" cy="-20" r="5" fill="#0D4F38"/>
    <circle cx="24" cy="20" r="4" fill="#00C9A7"/>
    <circle cx="-20" cy="36" r="5" fill="#00C9A7"/>
    <circle cx="-44" cy="4" r="6" fill="#00C9A7"/>
  </g>
  <rect x="158" y="124" width="130" height="2.5" fill="#00C9A7" rx="1.25"/>

  <!-- v3: ホームページリメイクスタジオ大・ブランド名小 -->
  <text x="158.0" y="78" font-family="'Helvetica Neue', Arial, 'Noto Sans JP', sans-serif" font-size="20" font-weight="800" fill="#6B7280" letter-spacing="0.5">ホームページ</text>
  <text x="158.0" y="102" font-family="'Helvetica Neue', Arial, 'Noto Sans JP', sans-serif" font-size="20" font-weight="800" fill="#6B7280" letter-spacing="0.5">リメイクスタジオ</text>
  <text x="158.0" y="120" font-family="'Helvetica Neue', Arial, sans-serif" font-size="11" font-weight="600" fill="#0D4F38" letter-spacing="2">AI ZERO</text>
</svg>