<svg xmlns="http://www.w3.org/2000/svg" viewBox="0 0 480 200" width="480" height="200">
  <rect width="480" height="200" fill="white"/>
<g transform="translate(90,100)">
    <rect x="-6" y="-6" width="12" height="12" rx="2" fill="#0D4F38"/>
    <rect x="-16" y="-16" width="10" height="10" rx="2" fill="#0D4F38" opacity="0.7"/>
    <rect x="6" y="-16" width="10" height="10" rx="2" fill="#0D4F38" opacity="0.7"/>
    <rect x="-16" y="6" width="10" height="10" rx="2" fill="#00C9A7" opacity="0.8"/>
    <rect x="6" y="6" width="10" height="10" rx="2" fill="#00C9A7" opacity="0.8"/>
    <rect x="-30" y="-30" width="8" height="8" rx="1.5" fill="#0D4F38" opacity="0.4"/>
    <rect x="22" y="-30" width="8" height="8" rx="1.5" fill="#0D4F38" opacity="0.4"/>
    <rect x="-30" y="22" width="8" height="8" rx="1.5" fill="#00C9A7" opacity="0.4"/>
    <rect x="22" y="22" width="8" height="8" rx="1.5" fill="#00C9A7" opacity="0.4"/>
    <rect x="-44" y="-44" width="6" height="6" rx="1" fill="#0D4F38" opacity="0.2"/>
    <rect x="38" y="-44" width="6" height="6" rx="1" fill="#0D4F38" opacity="0.2"/>
    <rect x="-44" y="38" width="6" height="6" rx="1" fill="#00C9A7" opacity="0.2"/>
    <rect x="38" y="38" width="6" height="6" rx="1" fill="#00C9A7" opacity="0.2"/>
  </g>
  <text x="158" y="72" font-family="'Helvetica Neue',Arial,'Noto Sans JP',sans-serif" font-size="10.5" fill="#6B7280" letter-spacing="2">ホームページリメイクスタジオ</text>
  <text x="158" y="118" font-family="'Helvetica Neue',Arial,sans-serif" font-size="26" font-weight="700" fill="#0D4F38">AI ZERO</text>
  <rect x="158" y="124" width="130" height="2.5" fill="#00C9A7" rx="1.25"/>
  <text x="158" y="149" font-family="'Helvetica Neue',Arial,'Noto Sans JP',sans-serif" font-size="10" fill="#9CA3AF">小さな点が広がる、フラクタル生成</text>
</svg>