<svg xmlns="http://www.w3.org/2000/svg" viewBox="0 0 480 200" width="480" height="200">
  <rect width="480" height="200" fill="white"/>
<g transform="translate(90,100)">
    <path d="M -50 0 Q -40 -30 -30 0 Q -20 30 -10 0 Q 0 -30 10 0 Q 20 30 30 0 Q 40 -30 50 0" fill="none" stroke="#0D4F38" stroke-width="3.5" stroke-linecap="round"/>
    <path d="M -50 0 Q -40 -20 -30 0 Q -20 20 -10 0 Q 0 -20 10 0 Q 20 20 30 0 Q 40 -20 50 0" fill="none" stroke="#00C9A7" stroke-width="2" stroke-linecap="round" opacity="0.5"/>
    <circle cx="0" cy="-30" r="6" fill="#0D4F38"/>
    <circle cx="-30" cy="0" r="4" fill="#00C9A7" opacity="0.6"/>
    <circle cx="30" cy="0" r="4" fill="#00C9A7" opacity="0.6"/>
  </g>
  <rect x="158" y="124" width="130" height="2.5" fill="#00C9A7" rx="1.25"/>

  <!-- v3: ホームページリメイクスタジオ大・ブランド名小 -->
  <text x="158.0" y="94" font-family="'Helvetica Neue', Arial, 'Noto Sans JP', sans-serif" font-size="20" font-weight="800" fill="#6B7280" letter-spacing="0.5">ホームページリメイクスタジオ</text>
  <text x="158.0" y="120" font-family="'Helvetica Neue', Arial, sans-serif" font-size="13" font-weight="600" fill="#0D4F38" letter-spacing="2">AI ZERO</text>
</svg>