<svg xmlns="http://www.w3.org/2000/svg" viewBox="0 0 480 200" width="480" height="200">
  <rect width="480" height="200" fill="white"/>
<g transform="translate(90,100)">
    <path d="M -22 0 Q -22 -38 0 -46 Q 22 -38 22 0 L 22 12 Q 10 20 -10 20 L -22 12 Z" fill="#0D4F38"/>
    <path d="M -14 20 L 14 20 L 12 30 L -12 30 Z" fill="#0D4F38" opacity="0.7"/>
    <rect x="-10" y="28" width="20" height="6" rx="3" fill="#00C9A7"/>
    <rect x="-7" y="34" width="14" height="5" rx="2.5" fill="#00C9A7" opacity="0.6"/>
    <path d="M -8 0 Q -8 -24 0 -30 Q 8 -24 8 0" fill="rgba(255,255,255,0.15)"/>
    <line x1="0" y1="-52" x2="0" y2="-58" stroke="#F59E0B" stroke-width="2" stroke-linecap="round"/>
    <line x1="20" y1="-44" x2="24" y2="-50" stroke="#F59E0B" stroke-width="2" stroke-linecap="round"/>
    <line x1="-20" y1="-44" x2="-24" y2="-50" stroke="#F59E0B" stroke-width="2" stroke-linecap="round"/>
    <circle cx="0" cy="-8" r="8" fill="rgba(0,201,167,0.3)"/>
  </g>
  <text x="158" y="72" font-family="'Helvetica Neue',Arial,'Noto Sans JP',sans-serif" font-size="10.5" fill="#6B7280" letter-spacing="2">ホームページリメイクスタジオ</text>
  <text x="158" y="118" font-family="'Helvetica Neue',Arial,sans-serif" font-size="38" font-weight="700" fill="#0D4F38">AI ZERO</text>
  <rect x="158" y="124" width="130" height="2.5" fill="#00C9A7" rx="1.25"/>
  <text x="158" y="149" font-family="'Helvetica Neue',Arial,'Noto Sans JP',sans-serif" font-size="10" fill="#9CA3AF">アイデアが点灯する、HP制作の瞬間</text>
</svg>