<svg xmlns="http://www.w3.org/2000/svg" viewBox="0 0 480 200" width="480" height="200">
  <rect width="480" height="200" fill="white"/>
<g transform="translate(90,100)">
    <circle cx="0" cy="0" r="46" fill="none" stroke="#0D4F38" stroke-width="2"/>
    <path d="M 0 -36 L 12 -18 L -12 -18 Z" fill="#0D4F38" transform="rotate(0)"/>
    <path d="M 0 -36 L 12 -18 L -12 -18 Z" fill="#0D4F38" opacity="0.85" transform="rotate(72)"/>
    <path d="M 0 -36 L 12 -18 L -12 -18 Z" fill="#0D4F38" opacity="0.7" transform="rotate(144)"/>
    <path d="M 0 -36 L 12 -18 L -12 -18 Z" fill="#0D4F38" opacity="0.55" transform="rotate(216)"/>
    <path d="M 0 -36 L 12 -18 L -12 -18 Z" fill="#0D4F38" opacity="0.4" transform="rotate(288)"/>
    <circle cx="0" cy="0" r="12" fill="white"/>
    <circle cx="0" cy="0" r="7" fill="#00C9A7"/>
    <circle cx="0" cy="0" r="3" fill="white"/>
  </g>
  <rect x="158" y="124" width="130" height="2.5" fill="#00C9A7" rx="1.25"/>

  <!-- v3: ホームページリメイクスタジオ大・ブランド名小 -->
  <text x="158.0" y="88" font-family="'Helvetica Neue', Arial, 'Noto Sans JP', sans-serif" font-size="24" font-weight="800" fill="#6B7280" letter-spacing="0.5">ホームページリメイクスタジオ</text>
  <text x="158.0" y="118" font-family="'Helvetica Neue', Arial, sans-serif" font-size="11" font-weight="600" fill="#0D4F38" letter-spacing="2">AI ZERO</text>
</svg>