<svg xmlns="http://www.w3.org/2000/svg" viewBox="0 0 480 200" width="480" height="200">
  <rect width="480" height="200" fill="white"/>
<g transform="translate(90,100)">
    <polygon points="0,-28 24,-14 24,14 0,28 -24,14 -24,-14" fill="#0D4F38"/>
    <polygon points="0,-50 22,-38 22,-16 0,-4 -22,-16 -22,-38" fill="none" stroke="#00C9A7" stroke-width="1.5" opacity="0.7"/>
    <polygon points="26,-16 48,-28 48,0 26,12" fill="none" stroke="#0D4F38" stroke-width="1.5" opacity="0.4"/>
    <polygon points="-26,-16 -48,-28 -48,0 -26,12" fill="none" stroke="#0D4F38" stroke-width="1.5" opacity="0.4"/>
    <polygon points="0,30 24,44 24,62 0,52 -24,62 -24,44" fill="none" stroke="#0D4F38" stroke-width="1.5" opacity="0.3"/>
    <circle cx="0" cy="-50" r="5" fill="#00C9A7"/>
  </g>
  <rect x="158" y="124" width="130" height="2.5" fill="#00C9A7" rx="1.25"/>

  <!-- v3: ホームページリメイクスタジオ大・ブランド名小 -->
  <text x="158.0" y="88" font-family="'Helvetica Neue', Arial, 'Noto Sans JP', sans-serif" font-size="24" font-weight="800" fill="#6B7280" letter-spacing="0.5">ホームページリメイクスタジオ</text>
  <text x="158.0" y="118" font-family="'Helvetica Neue', Arial, sans-serif" font-size="11" font-weight="600" fill="#0D4F38" letter-spacing="2">AI ZERO</text>
</svg>