<svg xmlns="http://www.w3.org/2000/svg" viewBox="0 0 480 200" width="480" height="200">
  <rect width="480" height="200" fill="white"/>
<g transform="translate(90,100)">
    <rect x="-6" y="-6" width="12" height="12" rx="2" fill="#0D4F38"/>
    <rect x="-16" y="-16" width="10" height="10" rx="2" fill="#0D4F38" opacity="0.7"/>
    <rect x="6" y="-16" width="10" height="10" rx="2" fill="#0D4F38" opacity="0.7"/>
    <rect x="-16" y="6" width="10" height="10" rx="2" fill="#00C9A7" opacity="0.8"/>
    <rect x="6" y="6" width="10" height="10" rx="2" fill="#00C9A7" opacity="0.8"/>
    <rect x="-30" y="-30" width="8" height="8" rx="1.5" fill="#0D4F38" opacity="0.4"/>
    <rect x="22" y="-30" width="8" height="8" rx="1.5" fill="#0D4F38" opacity="0.4"/>
    <rect x="-30" y="22" width="8" height="8" rx="1.5" fill="#00C9A7" opacity="0.4"/>
    <rect x="22" y="22" width="8" height="8" rx="1.5" fill="#00C9A7" opacity="0.4"/>
    <rect x="-44" y="-44" width="6" height="6" rx="1" fill="#0D4F38" opacity="0.2"/>
    <rect x="38" y="-44" width="6" height="6" rx="1" fill="#0D4F38" opacity="0.2"/>
    <rect x="-44" y="38" width="6" height="6" rx="1" fill="#00C9A7" opacity="0.2"/>
    <rect x="38" y="38" width="6" height="6" rx="1" fill="#00C9A7" opacity="0.2"/>
  </g>
  <rect x="158" y="124" width="130" height="2.5" fill="#00C9A7" rx="1.25"/>

  <!-- v3: ホームページリメイクスタジオ大・ブランド名小 -->
  <text x="158.0" y="94" font-family="'Helvetica Neue', Arial, 'Noto Sans JP', sans-serif" font-size="20" font-weight="800" fill="#6B7280" letter-spacing="0.5">ホームページリメイクスタジオ</text>
  <text x="158.0" y="120" font-family="'Helvetica Neue', Arial, sans-serif" font-size="13" font-weight="600" fill="#0D4F38" letter-spacing="2">AI ZERO</text>
</svg>