<svg xmlns="http://www.w3.org/2000/svg" viewBox="0 0 480 200" width="480" height="200">
  <rect width="480" height="200" fill="white"/>
<g transform="translate(90,108)">
    <path d="M -50 0 A 50 50 0 0 1 50 0" fill="#0D4F38"/>
    <path d="M -36 0 A 36 36 0 0 1 36 0" fill="#1A8A5E" opacity="0.6"/>
    <path d="M -20 0 A 20 20 0 0 1 20 0" fill="#00C9A7" opacity="0.8"/>
    <line x1="0" y1="-58" x2="0" y2="-52" stroke="#0D4F38" stroke-width="2.5" stroke-linecap="round"/>
    <line x1="30" y1="-50" x2="26" y2="-46" stroke="#0D4F38" stroke-width="2" stroke-linecap="round"/>
    <line x1="-30" y1="-50" x2="-26" y2="-46" stroke="#0D4F38" stroke-width="2" stroke-linecap="round"/>
    <line x1="54" y1="-24" x2="48" y2="-22" stroke="#0D4F38" stroke-width="2" stroke-linecap="round"/>
    <line x1="-54" y1="-24" x2="-48" y2="-22" stroke="#0D4F38" stroke-width="2" stroke-linecap="round"/>
    <line x1="-56" y1="4" x2="56" y2="4" stroke="#E5E7EB" stroke-width="1.5"/>
  </g>
  <rect x="158" y="124" width="130" height="2.5" fill="#00C9A7" rx="1.25"/>

  <!-- v3: ホームページリメイクスタジオ大・ブランド名小 -->
  <text x="158.0" y="94" font-family="'Helvetica Neue', Arial, 'Noto Sans JP', sans-serif" font-size="20" font-weight="800" fill="#6B7280" letter-spacing="0.5">ホームページリメイクスタジオ</text>
  <text x="158.0" y="120" font-family="'Helvetica Neue', Arial, sans-serif" font-size="13" font-weight="600" fill="#0D4F38" letter-spacing="2">AI ZERO</text>
</svg>