<svg xmlns="http://www.w3.org/2000/svg" viewBox="0 0 480 200" width="480" height="200">
  <rect width="480" height="200" fill="white"/>
<g transform="translate(90,100)">
    <path d="M 0 0 Q 20 -20 10 -44 Q -10 -54 -30 -40 Q -52 -20 -44 8 Q -36 36 -10 46 Q 22 54 44 32 Q 64 8 54 -22 Q 40 -52 8 -56" fill="none" stroke="#0D4F38" stroke-width="2.5" stroke-linecap="round"/>
    <circle cx="0" cy="0" r="8" fill="#0D4F38"/>
    <circle cx="10" cy="-44" r="5" fill="#00C9A7"/>
    <circle cx="-44" cy="8" r="4" fill="#00C9A7" opacity="0.7"/>
    <circle cx="44" cy="32" r="5" fill="#0D4F38" opacity="0.6"/>
    <circle cx="8" cy="-56" r="3" fill="#00C9A7" opacity="0.5"/>
    <circle cx="-10" cy="46" r="4" fill="#00C9A7" opacity="0.6"/>
    <circle cx="0" cy="0" r="3" fill="#F59E0B"/>
  </g>
  <rect x="158" y="124" width="130" height="2.5" fill="#00C9A7" rx="1.25"/>

  <!-- v3: ホームページリメイクスタジオ大・ブランド名小 -->
  <text x="158.0" y="88" font-family="'Helvetica Neue', Arial, 'Noto Sans JP', sans-serif" font-size="24" font-weight="800" fill="#6B7280" letter-spacing="0.5">ホームページリメイクスタジオ</text>
  <text x="158.0" y="118" font-family="'Helvetica Neue', Arial, sans-serif" font-size="11" font-weight="600" fill="#0D4F38" letter-spacing="2">AI ZERO</text>
</svg>