<svg xmlns="http://www.w3.org/2000/svg" viewBox="0 0 480 200" width="480" height="200">
  <rect width="480" height="200" fill="white"/>
<g transform="translate(90,100)">
    <polygon points="0,-56 40,-36 40,-8 0,12 -40,-8 -40,-36" fill="#0D4F38"/>
    <polygon points="0,-56 40,-36 0,-16 -40,-36" fill="#1A8A5E"/>
    <polygon points="40,-36 40,-8 0,12 0,-16" fill="#0A3D2E"/>
    <polygon points="-40,-36 -40,-8 0,12 0,-16" fill="#0D4F38" opacity="0.7"/>
    <polygon points="0,-24 30,-10 30,6 0,20 -30,6 -30,-10" fill="#00C9A7" opacity="0.9" transform="translate(0,28)"/>
  </g>
  <rect x="158" y="124" width="130" height="2.5" fill="#00C9A7" rx="1.25"/>

  <!-- v3: ホームページリメイクスタジオ大・ブランド名小 -->
  <text x="158.0" y="78" font-family="'Helvetica Neue', Arial, 'Noto Sans JP', sans-serif" font-size="20" font-weight="800" fill="#6B7280" letter-spacing="0.5">ホームページ</text>
  <text x="158.0" y="102" font-family="'Helvetica Neue', Arial, 'Noto Sans JP', sans-serif" font-size="20" font-weight="800" fill="#6B7280" letter-spacing="0.5">リメイクスタジオ</text>
  <text x="158.0" y="120" font-family="'Helvetica Neue', Arial, sans-serif" font-size="11" font-weight="600" fill="#0D4F38" letter-spacing="2">AI ZERO</text>
</svg>