<?xml version="1.0" encoding="UTF-8"?>
<svg xmlns="http://www.w3.org/2000/svg" xmlns:xlink="http://www.w3.org/1999/xlink" height="112" viewbox="0 0 200 118" width="190">
<defs>
<lineargradient id="ab07g" x1="0%" x2="100%" y1="0%" y2="100%">
<stop offset="0%" stop-color="#2E9E52"></stop><stop offset="100%" stop-color="#1B8C3E"></stop>
</lineargradient>
</defs>
<!-- Gear -->
<circle cx="100" cy="50" fill="url(#ab07g)" r="32"></circle>
<circle cx="100" cy="50" fill="white" r="18"></circle>
<!-- Gear teeth -->
<rect fill="url(#ab07g)" height="12" rx="2" transform="rotate(0,100,50)" width="8" x="96" y="12"></rect>
<rect fill="url(#ab07g)" height="12" rx="2" transform="rotate(45,100,50)" width="8" x="96" y="12"></rect>
<rect fill="url(#ab07g)" height="12" rx="2" transform="rotate(90,100,50)" width="8" x="96" y="12"></rect>
<rect fill="url(#ab07g)" height="12" rx="2" transform="rotate(135,100,50)" width="8" x="96" y="12"></rect>
<rect fill="url(#ab07g)" height="12" rx="2" transform="rotate(180,100,50)" width="8" x="96" y="12"></rect>
<rect fill="url(#ab07g)" height="12" rx="2" transform="rotate(225,100,50)" width="8" x="96" y="12"></rect>
<rect fill="url(#ab07g)" height="12" rx="2" transform="rotate(270,100,50)" width="8" x="96" y="12"></rect>
<rect fill="url(#ab07g)" height="12" rx="2" transform="rotate(315,100,50)" width="8" x="96" y="12"></rect>
<!-- Up arrow inside gear -->
<polygon fill="#FF6D00" points="100,36 108,48 104,48 104,64 96,64 96,48 92,48"></polygon>
<text fill="#1B8C3E" font-family="'Helvetica Neue',Arial,sans-serif" font-size="9.5" font-weight="700" letter-spacing="2" text-anchor="middle" x="100" y="103">AI BOOST</text>
<text fill="#aaa" font-family="'Helvetica Neue',Arial,sans-serif" font-size="7.5" text-anchor="middle" x="100" y="114">ホームページリメイクスタジオ</text>
</svg>