<?xml version="1.0" encoding="UTF-8"?>
<svg xmlns="http://www.w3.org/2000/svg" xmlns:xlink="http://www.w3.org/1999/xlink" height="112" viewbox="0 0 200 118" width="190">
<!-- Rocket body -->
<path d="M100,8 Q114,18 116,38 L116,70 Q100,78 84,70 L84,38 Q86,18 100,8 Z" fill="#1B8C3E"></path>
<!-- Nose cone (orange) -->
<path d="M100,4 Q108,10 116,22 L84,22 Q92,10 100,4 Z" fill="#FF6D00"></path>
<!-- Window -->
<circle cx="100" cy="44" fill="white" r="9"></circle>
<text dominant-baseline="middle" fill="#1B8C3E" font-family="'Helvetica Neue',Arial,sans-serif" font-size="9" font-weight="900" text-anchor="middle" x="100" y="48">B</text>
<!-- Fins -->
<path d="M84,60 L72,80 L84,74 Z" fill="#0D5C2A"></path>
<path d="M116,60 L128,80 L116,74 Z" fill="#0D5C2A"></path>
<!-- Exhaust flame -->
<ellipse cx="94" cy="80" fill="#FF6D00" opacity="0.9" rx="5" ry="7"></ellipse>
<ellipse cx="106" cy="80" fill="#FF6D00" opacity="0.9" rx="5" ry="7"></ellipse>
<ellipse cx="100" cy="84" fill="#FFB300" opacity="0.7" rx="6" ry="5"></ellipse>
<text fill="#1B8C3E" font-family="'Helvetica Neue',Arial,sans-serif" font-size="9.5" font-weight="700" letter-spacing="2" text-anchor="middle" x="100" y="107">AI BOOST</text>
<text fill="#aaa" font-family="'Helvetica Neue',Arial,sans-serif" font-size="7.5" text-anchor="middle" x="100" y="116">ホームページリメイクスタジオ</text>
</svg>