<?xml version="1.0" encoding="UTF-8"?>
<svg xmlns="http://www.w3.org/2000/svg" xmlns:xlink="http://www.w3.org/1999/xlink" height="112" viewbox="0 0 200 118" width="190">
<defs>
<lineargradient id="ab12g" x1="0%" x2="100%" y1="100%" y2="0%">
<stop offset="0%" stop-color="#4CAF72"></stop><stop offset="100%" stop-color="#1B8C3E"></stop>
</lineargradient>
</defs>
<!-- Rising wave lines -->
<path d="M18,82 C38,78 52,62 72,56 C92,50 108,54 128,42 C148,30 162,18 182,10" fill="none" stroke="url(#ab12g)" stroke-linecap="round" stroke-width="5"></path>
<path d="M18,90 C38,86 52,70 72,64 C92,58 108,62 128,50 C148,38 162,26 182,18" fill="none" opacity="0.4" stroke="url(#ab12g)" stroke-linecap="round" stroke-width="3"></path>
<!-- Arrowhead at top-right -->
<polygon fill="#FF6D00" points="188,6 188,22 176,12"></polygon>
<!-- AI badge -->
<rect fill="#1B8C3E" height="18" rx="9" width="32" x="22" y="54"></rect>
<text fill="white" font-family="'Helvetica Neue',Arial,sans-serif" font-size="10" font-weight="900" text-anchor="middle" x="38" y="67">AI</text>
<text fill="#1B8C3E" font-family="'Helvetica Neue',Arial,sans-serif" font-size="9.5" font-weight="700" letter-spacing="2" text-anchor="middle" x="100" y="106">AI BOOST</text>
<text fill="#aaa" font-family="'Helvetica Neue',Arial,sans-serif" font-size="7.5" text-anchor="middle" x="100" y="116">ホームページリメイクスタジオ</text>
</svg>