<?xml version="1.0" encoding="UTF-8"?>
<svg xmlns="http://www.w3.org/2000/svg" xmlns:xlink="http://www.w3.org/1999/xlink" height="112" viewbox="0 0 200 118" width="190">
<defs>
<lineargradient id="ab22g" x1="0%" x2="100%" y1="0%" y2="100%">
<stop offset="0%" stop-color="#2E9E52"></stop><stop offset="100%" stop-color="#1B8C3E"></stop>
</lineargradient>
</defs>
<!-- Left wing -->
<path d="M80,50 Q50,30 20,40 Q40,54 80,54 Z" fill="#FF6D00" opacity="0.85"></path>
<!-- Right wing -->
<path d="M120,50 Q150,30 180,40 Q160,54 120,54 Z" fill="#FF6D00" opacity="0.85"></path>
<!-- B center -->
<rect fill="url(#ab22g)" height="74" rx="5" width="10" x="76" y="18"></rect>
<path d="M86,18 L102,18 Q120,18 120,36 Q120,50 100,50 Q120,50 120,66 Q120,92 102,92 L86,92 Z" fill="url(#ab22g)"></path>
<path d="M92,26 L102,26 Q112,26 112,36 Q112,46 100,46 L92,46 Z" fill="rgba(255,255,255,0.2)"></path>
<path d="M92,52 L102,52 Q114,52 114,66 Q114,84 102,84 L92,84 Z" fill="rgba(255,255,255,0.15)"></path>
<text fill="#1B8C3E" font-family="'Helvetica Neue',Arial,sans-serif" font-size="9.5" font-weight="700" letter-spacing="2" text-anchor="middle" x="100" y="110">AI BOOST</text>
</svg>