<svg xmlns="http://www.w3.org/2000/svg" viewBox="0 0 480 200" width="480" height="200">
  <rect width="480" height="200" fill="white"/>
<g transform="translate(90,108)">
    <path d="M 0 0 Q -30 -20 -20 -50 Q -10 -70 0 -60 Q 10 -70 20 -50 Q 30 -20 0 0 Z" fill="#0D4F38"/>
    <path d="M 0 0 Q -16 -14 -10 -36 Q -4 -50 0 -44 Q 4 -50 10 -36 Q 16 -14 0 0 Z" fill="#00C9A7"/>
    <path d="M -20 -50 Q -44 -44 -52 -28 Q -48 -18 -36 -24" fill="none" stroke="#0D4F38" stroke-width="3" stroke-linecap="round"/>
    <path d="M 20 -50 Q 44 -44 52 -28 Q 48 -18 36 -24" fill="none" stroke="#0D4F38" stroke-width="3" stroke-linecap="round"/>
    <path d="M -20 0 Q -40 8 -36 24 L -16 14" fill="none" stroke="#00C9A7" stroke-width="2.5" stroke-linecap="round" opacity="0.7"/>
    <path d="M 20 0 Q 40 8 36 24 L 16 14" fill="none" stroke="#00C9A7" stroke-width="2.5" stroke-linecap="round" opacity="0.7"/>
    <circle cx="0" cy="-60" r="6" fill="#F59E0B"/>
    <circle cx="0" cy="-52" r="3" fill="#F59E0B" opacity="0.5"/>
  </g>
  <rect x="158" y="124" width="130" height="2.5" fill="#00C9A7" rx="1.25"/>

  <!-- v3: ホームページリメイクスタジオ大・ブランド名小 -->
  <text x="158.0" y="94" font-family="'Helvetica Neue', Arial, 'Noto Sans JP', sans-serif" font-size="20" font-weight="800" fill="#6B7280" letter-spacing="0.5">ホームページリメイクスタジオ</text>
  <text x="158.0" y="120" font-family="'Helvetica Neue', Arial, sans-serif" font-size="13" font-weight="600" fill="#0D4F38" letter-spacing="2">AIブースト</text>
</svg>