<svg xmlns="http://www.w3.org/2000/svg" viewBox="0 0 480 200" width="480" height="200">
  <rect width="480" height="200" fill="white"/>
<g transform="translate(90,100)">
    <path d="M -4 0 Q -4 -28 -24 -28 Q -48 -28 -48 0 Q -48 28 -24 28 Q -4 28 -4 0 Q -4 -28 18 -28 Q 42 -28 42 0 Q 42 28 18 28 Q -4 28 -4 0 Z" fill="none" stroke="#0D4F38" stroke-width="5"/>
    <path d="M -4 0 Q -4 -28 18 -28 Q 42 -28 42 0 Q 42 28 18 28 Q -4 28 -4 0 Z" fill="none" stroke="#00C9A7" stroke-width="3"/>
    <polygon points="38,-28 50,-22 38,-16" fill="#00C9A7"/>
    <circle cx="-4" cy="0" r="5" fill="#0D4F38"/>
    <circle cx="-4" cy="0" r="2.5" fill="#F59E0B"/>
  </g>
  <rect x="158" y="124" width="130" height="2.5" fill="#00C9A7" rx="1.25"/>

  <!-- v3: ホームページリメイクスタジオ大・ブランド名小 -->
  <text x="158.0" y="94" font-family="'Helvetica Neue', Arial, 'Noto Sans JP', sans-serif" font-size="20" font-weight="800" fill="#6B7280" letter-spacing="0.5">ホームページリメイクスタジオ</text>
  <text x="158.0" y="120" font-family="'Helvetica Neue', Arial, sans-serif" font-size="13" font-weight="600" fill="#0D4F38" letter-spacing="2">AIブースト</text>
</svg>