<svg xmlns="http://www.w3.org/2000/svg" viewBox="0 0 480 200" width="480" height="200">
  <rect width="480" height="200" fill="white"/>
<g transform="translate(90,100)">
    <path d="M 0 -48 L -14 -8 L -2 -8 L -16 32 L 4 -4 L -8 -4 Z" fill="#0D4F38" transform="translate(-16,0)"/>
    <path d="M 0 -48 L -14 -8 L -2 -8 L -16 32 L 4 -4 L -8 -4 Z" fill="#00C9A7" transform="translate(16,0)"/>
    <path d="M -4 -44 A 20 20 0 0 1 4 -44" fill="none" stroke="#F59E0B" stroke-width="2" stroke-linecap="round"/>
    <path d="M -10 -40 A 30 30 0 0 1 10 -40" fill="none" stroke="#F59E0B" stroke-width="1.5" stroke-linecap="round" opacity="0.6"/>
    <circle cx="0" cy="0" r="6" fill="#F59E0B"/>
  </g>
  <rect x="158" y="124" width="130" height="2.5" fill="#00C9A7" rx="1.25"/>

  <!-- v3: ホームページリメイクスタジオ大・ブランド名小 -->
  <text x="158.0" y="94" font-family="'Helvetica Neue', Arial, 'Noto Sans JP', sans-serif" font-size="20" font-weight="800" fill="#6B7280" letter-spacing="0.5">ホームページリメイクスタジオ</text>
  <text x="158.0" y="120" font-family="'Helvetica Neue', Arial, sans-serif" font-size="13" font-weight="600" fill="#0D4F38" letter-spacing="2">AIブースト</text>
</svg>