<svg xmlns="http://www.w3.org/2000/svg" viewBox="0 0 480 200" width="480" height="200">
  <rect width="480" height="200" fill="white"/>
<g transform="translate(90,100)">
    <path d="M 40 0 A 40 40 0 1 1 0 -40 A 28 28 0 0 0 28 0 A 16 16 0 0 1 0 16 A 6 6 0 0 0 0 -6" fill="none" stroke="#0D4F38" stroke-width="4" stroke-linecap="round"/>
    <circle cx="0" cy="0" r="6" fill="#00C9A7"/>
    <circle cx="0" cy="-40" r="5" fill="#0D4F38"/>
    <circle cx="40" cy="0" r="4" fill="#0D4F38" opacity="0.5"/>
    <polygon points="4,-44 12,-38 -4,-34" fill="#0D4F38"/>
  </g>
  <rect x="158" y="124" width="130" height="2.5" fill="#00C9A7" rx="1.25"/>

  <!-- v3: ホームページリメイクスタジオ大・ブランド名小 -->
  <text x="158.0" y="78" font-family="'Helvetica Neue', Arial, 'Noto Sans JP', sans-serif" font-size="20" font-weight="800" fill="#6B7280" letter-spacing="0.5">ホームページ</text>
  <text x="158.0" y="102" font-family="'Helvetica Neue', Arial, 'Noto Sans JP', sans-serif" font-size="20" font-weight="800" fill="#6B7280" letter-spacing="0.5">リメイクスタジオ</text>
  <text x="158.0" y="120" font-family="'Helvetica Neue', Arial, sans-serif" font-size="13" font-weight="600" fill="#0D4F38" letter-spacing="2">AIブースト</text>
</svg>