<svg xmlns="http://www.w3.org/2000/svg" viewBox="0 0 480 200" width="480" height="200">
  <rect width="480" height="200" fill="white"/>
<g transform="translate(90,108)">
    <path d="M -54 0 Q -40 0 -30 0 Q -20 0 -16 -30 Q -12 -56 0 -56 Q 12 -56 16 -30 Q 20 0 30 0 Q 40 0 54 -10" fill="none" stroke="#0D4F38" stroke-width="4" stroke-linecap="round" stroke-linejoin="round"/>
    <path d="M -54 8 Q -40 8 -30 8 Q -20 8 -16 -22 Q -12 -48 0 -48 Q 12 -48 16 -22 Q 20 8 30 8 Q 40 8 54 -2" fill="none" stroke="#00C9A7" stroke-width="2.5" stroke-linecap="round" stroke-linejoin="round" opacity="0.6"/>
    <circle cx="0" cy="-56" r="7" fill="#00C9A7"/>
    <line x1="-56" y1="14" x2="56" y2="14" stroke="#E5E7EB" stroke-width="1.5"/>
  </g>
  <text x="158" y="72" font-family="'Helvetica Neue',Arial,'Noto Sans JP',sans-serif" font-size="10.5" fill="#6B7280" letter-spacing="2">ホームページリメイクスタジオ</text>
  <text x="158" y="118" font-family="'Helvetica Neue',Arial,sans-serif" font-size="26" font-weight="800" fill="#0D4F38">AIブースト</text>
  <rect x="158" y="124" width="130" height="2.5" fill="#00C9A7" rx="1.25"/>
  <text x="158" y="149" font-family="'Helvetica Neue',Arial,'Noto Sans JP',sans-serif" font-size="10" fill="#9CA3AF">急上昇する波形、集客が覚醒する瞬間</text>
</svg>