<svg xmlns="http://www.w3.org/2000/svg" viewBox="0 0 480 200" width="480" height="200">
  <rect width="480" height="200" fill="white"/>
<g transform="translate(90,100)">
    <line x1="-40" y1="0" x2="-14" y2="0" stroke="#0D4F38" stroke-width="2"/>
    <line x1="-40" y1="0" x2="-14" y2="-20" stroke="#0D4F38" stroke-width="2" opacity="0.6"/>
    <line x1="14" y1="0" x2="40" y2="0" stroke="#00C9A7" stroke-width="2.5"/>
    <line x1="14" y1="0" x2="40" y2="-22" stroke="#00C9A7" stroke-width="2" opacity="0.7"/>
    <line x1="14" y1="0" x2="40" y2="22" stroke="#00C9A7" stroke-width="2" opacity="0.6"/>
    <circle cx="-40" cy="0" r="8" fill="#0D4F38"/>
    <circle cx="-40" cy="-20" r="6" fill="#0D4F38" opacity="0.5"/>
    <rect x="-14" y="-12" width="28" height="24" rx="4" fill="#0D4F38"/>
    <circle cx="40" cy="0" r="9" fill="#00C9A7"/>
    <circle cx="40" cy="-22" r="6" fill="#00C9A7" opacity="0.7"/>
    <circle cx="40" cy="22" r="6" fill="#00C9A7" opacity="0.5"/>
    <polygon points="44,0 54,-6 54,6" fill="#00C9A7"/>
  </g>
  <rect x="158" y="124" width="130" height="2.5" fill="#00C9A7" rx="1.25"/>

  <!-- v3: ホームページリメイクスタジオ大・ブランド名小 -->
  <text x="158.0" y="94" font-family="'Helvetica Neue', Arial, 'Noto Sans JP', sans-serif" font-size="20" font-weight="800" fill="#6B7280" letter-spacing="0.5">ホームページリメイクスタジオ</text>
  <text x="158.0" y="120" font-family="'Helvetica Neue', Arial, sans-serif" font-size="13" font-weight="600" fill="#0D4F38" letter-spacing="2">AIブースト</text>
</svg>