<svg xmlns="http://www.w3.org/2000/svg" viewBox="0 0 480 200" width="480" height="200">
  <rect width="480" height="200" fill="white"/>
<g transform="translate(90,100)">
    <path d="M 40 0 A 40 40 0 1 1 0 -40 A 28 28 0 0 0 28 0 A 16 16 0 0 1 0 16 A 6 6 0 0 0 0 -6" fill="none" stroke="#0D4F38" stroke-width="4" stroke-linecap="round"/>
    <circle cx="0" cy="0" r="6" fill="#00C9A7"/>
    <circle cx="0" cy="-40" r="5" fill="#0D4F38"/>
    <circle cx="40" cy="0" r="4" fill="#0D4F38" opacity="0.5"/>
    <polygon points="4,-44 12,-38 -4,-34" fill="#0D4F38"/>
  </g>
  <text x="158" y="72" font-family="'Helvetica Neue',Arial,'Noto Sans JP',sans-serif" font-size="10.5" fill="#6B7280" letter-spacing="2">ホームページリメイクスタジオ</text>
  <text x="158" y="118" font-family="'Helvetica Neue',Arial,sans-serif" font-size="26" font-weight="800" fill="#0D4F38">AIブースト</text>
  <rect x="158" y="124" width="130" height="2.5" fill="#00C9A7" rx="1.25"/>
  <text x="158" y="149" font-family="'Helvetica Neue',Arial,'Noto Sans JP',sans-serif" font-size="10" fill="#9CA3AF">渦のエネルギーで、HPを最適化する</text>
</svg>