<svg xmlns="http://www.w3.org/2000/svg" viewBox="0 0 480 200" width="480" height="200">
  <rect width="480" height="200" fill="white"/>
<g transform="translate(90,110)">
    <path d="M 0 10 Q -20 -10 -10 -40 Q 0 -60 0 -60 Q 0 -60 10 -40 Q 20 -10 0 10 Z" fill="#0D4F38"/>
    <path d="M -8 8 Q -16 -8 -6 -30 Q 0 -44 0 -44 Q 6 -34 2 -18 Q -2 -4 -8 8 Z" fill="#00C9A7" opacity="0.8"/>
    <path d="M -18 10 Q -34 -8 -24 -34 Q -16 -52 -14 -52 Q -8 -36 -14 -22 Q -20 -8 -18 10 Z" fill="#0D4F38" opacity="0.5"/>
    <path d="M 18 10 Q 34 -8 24 -34 Q 16 -52 14 -52 Q 8 -36 14 -22 Q 20 -8 18 10 Z" fill="#0D4F38" opacity="0.4"/>
    <ellipse cx="0" cy="12" rx="22" ry="8" fill="#0D4F38" opacity="0.3"/>
  </g>
  <rect x="158" y="124" width="130" height="2.5" fill="#00C9A7" rx="1.25"/>

  <!-- v3: ホームページリメイクスタジオ大・ブランド名小 -->
  <text x="158.0" y="78" font-family="'Helvetica Neue', Arial, 'Noto Sans JP', sans-serif" font-size="20" font-weight="800" fill="#6B7280" letter-spacing="0.5">ホームページ</text>
  <text x="158.0" y="102" font-family="'Helvetica Neue', Arial, 'Noto Sans JP', sans-serif" font-size="20" font-weight="800" fill="#6B7280" letter-spacing="0.5">リメイクスタジオ</text>
  <text x="158.0" y="120" font-family="'Helvetica Neue', Arial, sans-serif" font-size="13" font-weight="600" fill="#0D4F38" letter-spacing="2">AIブースト</text>
</svg>