<?xml version="1.0" encoding="UTF-8"?>
<svg xmlns="http://www.w3.org/2000/svg" xmlns:xlink="http://www.w3.org/1999/xlink" height="112" viewbox="0 0 200 118" width="190">
<defs>
<lineargradient id="g06" x1="0%" x2="100%" y1="0%" y2="100%">
<stop offset="0%" stop-color="#1B4FC2"></stop><stop offset="100%" stop-color="#3B82F6"></stop>
</lineargradient>
</defs>
<!-- Gear shape: circle with teeth -->
<circle cx="100" cy="48" fill="url(#g06)" r="34"></circle>
<circle cx="100" cy="48" fill="#fff" r="22"></circle>
<!-- Gear teeth via rectangles rotated -->
<rect fill="url(#g06)" height="10" rx="2" transform="rotate(0,100,48)" width="8" x="96" y="10"></rect>
<rect fill="url(#g06)" height="10" rx="2" transform="rotate(45,100,48)" width="8" x="96" y="10"></rect>
<rect fill="url(#g06)" height="10" rx="2" transform="rotate(90,100,48)" width="8" x="96" y="10"></rect>
<rect fill="url(#g06)" height="10" rx="2" transform="rotate(135,100,48)" width="8" x="96" y="10"></rect>
<rect fill="url(#g06)" height="10" rx="2" transform="rotate(180,100,48)" width="8" x="96" y="10"></rect>
<rect fill="url(#g06)" height="10" rx="2" transform="rotate(225,100,48)" width="8" x="96" y="10"></rect>
<rect fill="url(#g06)" height="10" rx="2" transform="rotate(270,100,48)" width="8" x="96" y="10"></rect>
<rect fill="url(#g06)" height="10" rx="2" transform="rotate(315,100,48)" width="8" x="96" y="10"></rect>
<text dominant-baseline="middle" fill="#1B4FC2" font-family="'Helvetica Neue',Arial,sans-serif" font-size="22" font-weight="900" text-anchor="middle" x="100" y="54">S</text>
<text fill="#1B4FC2" font-family="'Helvetica Neue',Arial,sans-serif" font-size="9" font-weight="700" letter-spacing="2" text-anchor="middle" x="100" y="100">SITE MEISTER</text>
<text fill="#888" font-family="'Helvetica Neue',Arial,sans-serif" font-size="8" text-anchor="middle" x="100" y="112">サイトマイスター</text>
</svg>