<?xml version="1.0" encoding="UTF-8"?>
<svg xmlns="http://www.w3.org/2000/svg" xmlns:xlink="http://www.w3.org/1999/xlink" height="112" viewbox="0 0 200 118" width="190">
<!-- background dots -->
<circle cx="76" cy="14" fill="#DCE6FA" r="5.5"></circle>
<circle cx="124" cy="14" fill="#DCE6FA" r="5.5"></circle>
<circle cx="92" cy="30" fill="#DCE6FA" r="5.5"></circle>
<circle cx="108" cy="30" fill="#DCE6FA" r="5.5"></circle>
<circle cx="124" cy="30" fill="#DCE6FA" r="5.5"></circle>
<circle cx="76" cy="46" fill="#DCE6FA" r="5.5"></circle>
<circle cx="124" cy="46" fill="#DCE6FA" r="5.5"></circle>
<circle cx="76" cy="62" fill="#DCE6FA" r="5.5"></circle>
<circle cx="92" cy="62" fill="#DCE6FA" r="5.5"></circle>
<circle cx="108" cy="62" fill="#DCE6FA" r="5.5"></circle>
<circle cx="76" cy="78" fill="#DCE6FA" r="5.5"></circle>
<circle cx="124" cy="78" fill="#DCE6FA" r="5.5"></circle>
<!-- S dots (blue) -->
<circle cx="92" cy="14" fill="#1B4FC2" r="5.5"></circle>
<circle cx="108" cy="14" fill="#1B4FC2" r="5.5"></circle>
<circle cx="76" cy="30" fill="#1B4FC2" r="5.5"></circle>
<circle cx="92" cy="46" fill="#1B4FC2" r="5.5"></circle>
<circle cx="108" cy="46" fill="#1B4FC2" r="5.5"></circle>
<circle cx="124" cy="62" fill="#1B4FC2" r="5.5"></circle>
<circle cx="92" cy="78" fill="#1B4FC2" r="5.5"></circle>
<circle cx="108" cy="78" fill="#1B4FC2" r="5.5"></circle>
<text fill="#1B4FC2" font-family="'Helvetica Neue',Arial,sans-serif" font-size="10" font-weight="700" letter-spacing="1.5" text-anchor="middle" x="100" y="101">SITE MEISTER</text>
<text fill="#888" font-family="'Helvetica Neue',Arial,sans-serif" font-size="8.5" text-anchor="middle" x="100" y="113">サイトマイスター</text>
</svg>