<?xml version="1.0" encoding="UTF-8"?>
<svg xmlns="http://www.w3.org/2000/svg" xmlns:xlink="http://www.w3.org/1999/xlink" height="112" viewbox="0 0 200 118" width="190">
<!-- Blueprint background -->
<rect fill="#0D2D7A" height="88" rx="4" width="152" x="24" y="4"></rect>
<!-- Grid lines -->
<g stroke="rgba(100,150,255,0.2)" stroke-width="0.8">
<line x1="24" x2="176" y1="16" y2="16"></line>
<line x1="24" x2="176" y1="28" y2="28"></line>
<line x1="24" x2="176" y1="40" y2="40"></line>
<line x1="24" x2="176" y1="52" y2="52"></line>
<line x1="24" x2="176" y1="64" y2="64"></line>
<line x1="24" x2="176" y1="76" y2="76"></line>
<line x1="48" x2="48" y1="4" y2="92"></line>
<line x1="72" x2="72" y1="4" y2="92"></line>
<line x1="96" x2="96" y1="4" y2="92"></line>
<line x1="120" x2="120" y1="4" y2="92"></line>
<line x1="144" x2="144" y1="4" y2="92"></line>
</g>
<!-- S in blueprint style (outline only) -->
<path d="M122,20 Q80,20 80,36 Q80,52 120,52 Q160,52 160,68 Q160,84 118,84" fill="none" stroke="#4A90E8" stroke-linecap="round" stroke-width="4"></path>
<!-- Dimension markers -->
<line stroke="#D4A017" stroke-dasharray="2,3" stroke-width="1" x1="78" x2="78" y1="18" y2="54"></line>
<line stroke="#D4A017" stroke-dasharray="2,3" stroke-width="1" x1="122" x2="122" y1="50" y2="86"></line>
<text fill="#1B4FC2" font-family="'Helvetica Neue',Arial,sans-serif" font-size="9.5" font-weight="700" letter-spacing="2" text-anchor="middle" x="100" y="107">SITE MEISTER</text>
<text fill="#aaa" font-family="'Helvetica Neue',Arial,sans-serif" font-size="7.5" text-anchor="middle" x="100" y="116">サイトマイスター</text>
</svg>